<?xml version="1.0" encoding="utf-8"?>
<!-- Generator: Adobe Illustrator 24.1.1, SVG Export Plug-In . SVG Version: 6.00 Build 0)  -->
<svg version="1.1" id="Layer_1" xmlns="http://www.w3.org/2000/svg" xmlns:xlink="http://www.w3.org/1999/xlink" x="0px" y="0px"
	 viewBox="0 0 428.3 413.3" style="enable-background:new 0 0 428.3 413.3;" xml:space="preserve">
<style type="text/css">
	.st0{fill:url(#SVGID_1_);}
	.st1{fill:url(#SVGID_2_);}
	.st2{fill:url(#SVGID_3_);}
	.st3{fill:url(#SVGID_4_);}
	.st4{fill:url(#SVGID_5_);}
	.st5{fill:url(#SVGID_6_);}
	.st6{fill:url(#SVGID_7_);}
	.st7{fill:none;}
	.st8{fill:#FFFFFF;}
	.st9{font-family:'MongolianBaiti';}
	.st10{font-size:242.3114px;}
</style>
<g>
	<g>
		<linearGradient id="SVGID_1_" gradientUnits="userSpaceOnUse" x1="42.3295" y1="207.8084" x2="380.1274" y2="207.8084">
			<stop  offset="5.208300e-04" style="stop-color:#ED1A59"/>
			<stop  offset="0.1418" style="stop-color:#E21B58"/>
			<stop  offset="0.3613" style="stop-color:#CE1D54"/>
			<stop  offset="0.5404" style="stop-color:#BA1E51"/>
		</linearGradient>
		<path class="st0" d="M211.2,376.7c-93.1,0-168.9-75.8-168.9-168.9c0-93.1,75.8-168.9,168.9-168.9s168.9,75.8,168.9,168.9
			C380.1,300.9,304.4,376.7,211.2,376.7z M211.2,46.7c-88.8,0-161.1,72.3-161.1,161.1s72.3,161.1,161.1,161.1
			s161.1-72.3,161.1-161.1S300,46.7,211.2,46.7z"/>
	</g>
	<linearGradient id="SVGID_2_" gradientUnits="userSpaceOnUse" x1="81.0345" y1="260.6591" x2="155.7122" y2="242.3813">
		<stop  offset="5.208300e-04" style="stop-color:#ED1A59"/>
		<stop  offset="0.1418" style="stop-color:#E21B58"/>
		<stop  offset="0.3613" style="stop-color:#CE1D54"/>
		<stop  offset="0.5404" style="stop-color:#BA1E51"/>
	</linearGradient>
	<path class="st1" d="M92.6,228.3c0.8,10.2,0.4,20.6,2.5,30.6c1.2,5.7,3.2,11.3,7,15.7c4.5,5.2,11.1,8.2,17.7,10.1
		c10.6,3.1,21.8,4,32.6,6.6c10.8,2.6,21.7,7.1,28.6,15.8c0.6,0.7,1.2,1.5,2.1,1.9c1.8,0.7,3.6-0.8,4.8-2.4c9.5-12.1,8.1-30,1.2-43.7
		c-6.9-13.8-18.4-24.6-28.8-35.9c-6-6.5-11.9-13.4-18.8-19c-6.9-5.6-15.2-9.9-24.1-10.6c-4.4-0.3-9.4,0.1-12.8-2.6
		c-2.3-1.8-3.5-4.7-5.2-7.1c-1.7-2.4-4.7-4.5-7.5-3.4c-7.1,2.7-8.5,13.5-5.9,19.2C89.7,211.6,91.9,219.3,92.6,228.3z"/>
	<linearGradient id="SVGID_3_" gradientUnits="userSpaceOnUse" x1="69.1133" y1="204.1324" x2="351.381" y2="204.1324">
		<stop  offset="5.208300e-04" style="stop-color:#ED1A59"/>
		<stop  offset="0.1418" style="stop-color:#E21B58"/>
		<stop  offset="0.3613" style="stop-color:#CE1D54"/>
		<stop  offset="0.5404" style="stop-color:#BA1E51"/>
	</linearGradient>
	<path class="st2" d="M73,156.3c-5.4,13.7-5.6,30.1,2.5,42.4c15.8,24.1,55.8,24.4,68.4,50.4c7.8,16.1,1.6,36.2,9.2,52.3
		c8.6,18.2,31.3,24.7,51.4,25.1c36.1,0.7,72.3-12.9,99.5-36.6c9.5-8.3,17-18,25.4-27.2c8.2-8.9,14.1-19.8,17.7-31.3
		c4.9-15.7,5.4-32.6,2.8-48.9c-4.2-26.6-17.2-51.5-37.2-69.7c-21.9-20-57.7-30.2-87-31c-8.7-0.3-17.5,0.6-26.1,1.8
		C151.7,90.3,92.5,106.9,73,156.3z"/>
	<g>
		<linearGradient id="SVGID_4_" gradientUnits="userSpaceOnUse" x1="134.953" y1="43.6602" x2="179.0136" y2="43.6602">
			<stop  offset="5.208300e-04" style="stop-color:#ED1A59"/>
			<stop  offset="0.1418" style="stop-color:#E21B58"/>
			<stop  offset="0.3613" style="stop-color:#CE1D54"/>
			<stop  offset="0.5404" style="stop-color:#BA1E51"/>
		</linearGradient>
		<circle class="st3" cx="157" cy="43.7" r="22"/>
		<linearGradient id="SVGID_5_" gradientUnits="userSpaceOnUse" x1="168.7329" y1="45.2511" x2="191.9868" y2="45.2511">
			<stop  offset="5.208300e-04" style="stop-color:#ED1A59"/>
			<stop  offset="0.1418" style="stop-color:#E21B58"/>
			<stop  offset="0.3613" style="stop-color:#CE1D54"/>
			<stop  offset="0.5404" style="stop-color:#BA1E51"/>
		</linearGradient>
		<path class="st4" d="M192,45.3c0,6.4-5.2,11.6-11.6,11.6c-6.4,0-11.6-5.2-11.6-11.6c0-6.4,5.2-11.6,11.6-11.6
			C186.8,33.6,192,38.8,192,45.3z"/>
	</g>
	<g>
		<linearGradient id="SVGID_6_" gradientUnits="userSpaceOnUse" x1="288.3198" y1="338.5792" x2="329.928" y2="338.5792">
			<stop  offset="5.208300e-04" style="stop-color:#ED1A59"/>
			<stop  offset="0.1418" style="stop-color:#E21B58"/>
			<stop  offset="0.3613" style="stop-color:#CE1D54"/>
			<stop  offset="0.5404" style="stop-color:#BA1E51"/>
		</linearGradient>
		<path class="st5" d="M329.9,338.6c0,11.5-9.3,20.8-20.8,20.8c-11.5,0-20.8-9.3-20.8-20.8c0-11.5,9.3-20.8,20.8-20.8
			C320.6,317.8,329.9,327.1,329.9,338.6z"/>
		<linearGradient id="SVGID_7_" gradientUnits="userSpaceOnUse" x1="320.2192" y1="340.0818" x2="342.1794" y2="340.0818">
			<stop  offset="5.208300e-04" style="stop-color:#ED1A59"/>
			<stop  offset="0.1418" style="stop-color:#E21B58"/>
			<stop  offset="0.3613" style="stop-color:#CE1D54"/>
			<stop  offset="0.5404" style="stop-color:#BA1E51"/>
		</linearGradient>
		<circle class="st6" cx="331.2" cy="340.1" r="11"/>
	</g>
</g>
<rect x="168.7" y="105.9" class="st7" width="164.3" height="190.2"/>
<text transform="matrix(1 0 0 1 168.7343 274.0817)" class="st8 st9 st10">4</text>
</svg>
