<?xml version="1.0" encoding="utf-8"?>
<!-- Generator: Adobe Illustrator 24.1.1, SVG Export Plug-In . SVG Version: 6.00 Build 0)  -->
<svg version="1.1" id="Layer_1" xmlns="http://www.w3.org/2000/svg" xmlns:xlink="http://www.w3.org/1999/xlink" x="0px" y="0px"
	 viewBox="0 0 428.3 413.3" style="enable-background:new 0 0 428.3 413.3;" xml:space="preserve">
<style type="text/css">
	.st0{fill:url(#SVGID_1_);}
	.st1{fill:url(#SVGID_2_);}
	.st2{fill:url(#SVGID_3_);}
	.st3{fill:url(#SVGID_4_);}
	.st4{fill:url(#SVGID_5_);}
	.st5{fill:url(#SVGID_6_);}
	.st6{fill:url(#SVGID_7_);}
	.st7{fill:none;}
	.st8{fill:#FFFFFF;}
	.st9{font-family:'MongolianBaiti';}
	.st10{font-size:243.7344px;}
</style>
<g>
	<g>
		<linearGradient id="SVGID_1_" gradientUnits="userSpaceOnUse" x1="52.734" y1="211.4424" x2="392.5157" y2="211.4424">
			<stop  offset="0" style="stop-color:#ED2A90"/>
			<stop  offset="0.4489" style="stop-color:#BF3192"/>
			<stop  offset="1" style="stop-color:#903D97"/>
		</linearGradient>
		<path class="st0" d="M222.6,381.3c-93.7,0-169.9-76.2-169.9-169.9S128.9,41.6,222.6,41.6s169.9,76.2,169.9,169.9
			S316.3,381.3,222.6,381.3z M222.6,49.4c-89.3,0-162,72.7-162,162s72.7,162,162,162s162-72.7,162-162S312,49.4,222.6,49.4z"/>
	</g>
	<linearGradient id="SVGID_2_" gradientUnits="userSpaceOnUse" x1="96.0442" y1="286.1534" x2="145.3375" y2="253.1362">
		<stop  offset="0" style="stop-color:#ED2A90"/>
		<stop  offset="0.4489" style="stop-color:#BF3192"/>
		<stop  offset="1" style="stop-color:#903D97"/>
	</linearGradient>
	<path class="st1" d="M103.3,232c0.8,10.3,0.4,20.7,2.5,30.8c1.2,5.7,3.3,11.4,7.1,15.8c4.5,5.2,11.2,8.2,17.8,10.2
		c10.7,3.2,21.9,4.1,32.8,6.6c10.9,2.6,21.8,7.1,28.8,15.9c0.6,0.7,1.2,1.5,2.1,1.9c1.8,0.7,3.7-0.8,4.8-2.4
		c9.6-12.2,8.1-30.2,1.2-44c-7-13.8-18.5-24.7-29-36.1c-6.1-6.6-11.9-13.5-18.9-19.1c-7-5.6-15.3-10-24.2-10.6
		c-4.5-0.3-9.4,0.2-12.9-2.6c-2.3-1.8-3.5-4.8-5.2-7.2c-1.7-2.4-4.7-4.5-7.5-3.4c-7.2,2.7-8.5,13.5-5.9,19.3
		C100.3,215.3,102.6,223,103.3,232z"/>
	<linearGradient id="SVGID_3_" gradientUnits="userSpaceOnUse" x1="79.6751" y1="207.7451" x2="363.6006" y2="207.7451">
		<stop  offset="0" style="stop-color:#ED2A90"/>
		<stop  offset="0.4489" style="stop-color:#BF3192"/>
		<stop  offset="1" style="stop-color:#903D97"/>
	</linearGradient>
	<path class="st2" d="M83.6,159.7c-5.4,13.8-5.6,30.3,2.5,42.7c15.9,24.2,56.2,24.6,68.8,50.7c7.8,16.1,1.6,36.4,9.2,52.6
		c8.6,18.3,31.5,24.9,51.7,25.2c36.3,0.7,72.7-12.9,100-36.8c9.6-8.4,17.1-18.1,25.6-27.4c8.2-9,14.2-19.9,17.8-31.5
		c4.9-15.8,5.4-32.8,2.8-49.2c-4.2-26.8-17.3-51.8-37.4-70.1c-22-20.1-58.1-30.4-87.5-31.2c-8.8-0.3-17.6,0.6-26.3,1.8
		C162.7,93.3,103.2,109.9,83.6,159.7z"/>
	<g>
		<linearGradient id="SVGID_4_" gradientUnits="userSpaceOnUse" x1="145.9015" y1="46.3304" x2="190.2208" y2="46.3304">
			<stop  offset="0" style="stop-color:#ED2A90"/>
			<stop  offset="0.4489" style="stop-color:#BF3192"/>
			<stop  offset="1" style="stop-color:#903D97"/>
		</linearGradient>
		<circle class="st3" cx="168.1" cy="46.3" r="22.2"/>
		<linearGradient id="SVGID_5_" gradientUnits="userSpaceOnUse" x1="179.8797" y1="47.9307" x2="203.2702" y2="47.9307">
			<stop  offset="0" style="stop-color:#ED2A90"/>
			<stop  offset="0.4489" style="stop-color:#BF3192"/>
			<stop  offset="1" style="stop-color:#903D97"/>
		</linearGradient>
		<path class="st4" d="M203.3,47.9c0,6.5-5.2,11.7-11.7,11.7c-6.5,0-11.7-5.2-11.7-11.7c0-6.5,5.2-11.7,11.7-11.7
			C198,36.2,203.3,41.5,203.3,47.9z"/>
	</g>
	<g>
		<linearGradient id="SVGID_6_" gradientUnits="userSpaceOnUse" x1="300.169" y1="342.9815" x2="342.0215" y2="342.9815">
			<stop  offset="0" style="stop-color:#ED2A90"/>
			<stop  offset="0.4489" style="stop-color:#BF3192"/>
			<stop  offset="1" style="stop-color:#903D97"/>
		</linearGradient>
		<path class="st5" d="M342,343c0,11.6-9.4,20.9-20.9,20.9s-20.9-9.4-20.9-20.9c0-11.6,9.4-20.9,20.9-20.9S342,331.4,342,343z"/>
		<linearGradient id="SVGID_7_" gradientUnits="userSpaceOnUse" x1="332.2558" y1="344.4929" x2="354.3448" y2="344.4929">
			<stop  offset="0" style="stop-color:#ED2A90"/>
			<stop  offset="0.4489" style="stop-color:#BF3192"/>
			<stop  offset="1" style="stop-color:#903D97"/>
		</linearGradient>
		<circle class="st6" cx="343.3" cy="344.5" r="11"/>
	</g>
</g>
<rect x="168.1" y="102.8" class="st7" width="165.3" height="191.3"/>
<text transform="matrix(1 0 0 1 168.0612 271.9173)" class="st8 st9 st10">1</text>
</svg>
