<?xml version="1.0" encoding="utf-8"?>
<!-- Generator: Adobe Illustrator 24.1.1, SVG Export Plug-In . SVG Version: 6.00 Build 0)  -->
<svg version="1.1" id="Layer_1" xmlns="http://www.w3.org/2000/svg" xmlns:xlink="http://www.w3.org/1999/xlink" x="0px" y="0px"
	 viewBox="0 0 428.3 413.3" style="enable-background:new 0 0 428.3 413.3;" xml:space="preserve">
<style type="text/css">
	.st0{fill:url(#SVGID_1_);}
	.st1{fill:url(#SVGID_2_);}
	.st2{fill:url(#SVGID_3_);}
	.st3{fill:url(#SVGID_4_);}
	.st4{fill:url(#SVGID_5_);}
	.st5{fill:url(#SVGID_6_);}
	.st6{fill:url(#SVGID_7_);}
	.st7{fill:none;}
	.st8{fill:#FFFFFF;}
	.st9{font-family:'MongolianBaiti';}
	.st10{font-size:257.3828px;}
</style>
<g>
	<g>
		<linearGradient id="SVGID_1_" gradientUnits="userSpaceOnUse" x1="34.7624" y1="206.3002" x2="393.5709" y2="206.3002">
			<stop  offset="5.208300e-04" style="stop-color:#181148"/>
			<stop  offset="0.7279" style="stop-color:#525AA8"/>
			<stop  offset="1" style="stop-color:#51C3C3"/>
		</linearGradient>
		<path class="st0" d="M214.2,385.7c-98.9,0-179.4-80.5-179.4-179.4S115.2,26.9,214.2,26.9s179.4,80.5,179.4,179.4
			S313.1,385.7,214.2,385.7z M214.2,35.2c-94.3,0-171.1,76.7-171.1,171.1s76.7,171.1,171.1,171.1s171.1-76.7,171.1-171.1
			S308.5,35.2,214.2,35.2z"/>
	</g>
	<linearGradient id="SVGID_2_" gradientUnits="userSpaceOnUse" x1="155.8416" y1="235.0643" x2="90.3867" y2="277.7765">
		<stop  offset="5.208300e-04" style="stop-color:#181148"/>
		<stop  offset="0.7279" style="stop-color:#525AA8"/>
		<stop  offset="1" style="stop-color:#51C3C3"/>
	</linearGradient>
	<path class="st1" d="M88.1,228c0.8,10.9,0.4,21.9,2.7,32.5c1.3,6,3.4,12,7.5,16.7c4.8,5.5,11.8,8.7,18.8,10.8
		c11.3,3.3,23.2,4.3,34.6,7c11.5,2.7,23,7.5,30.4,16.8c0.6,0.8,1.3,1.6,2.2,2c1.9,0.7,3.9-0.9,5.1-2.5c10.1-12.9,8.6-31.9,1.2-46.5
		c-7.4-14.6-19.5-26.1-30.6-38.1c-6.4-6.9-12.6-14.2-20-20.1c-7.4-5.9-16.1-10.6-25.6-11.2c-4.7-0.3-9.9,0.2-13.6-2.8
		c-2.5-1.9-3.7-5-5.5-7.6c-1.8-2.6-5-4.8-7.9-3.6c-7.6,2.9-9,14.3-6.2,20.4C85,210.4,87.4,218.5,88.1,228z"/>
	<linearGradient id="SVGID_3_" gradientUnits="userSpaceOnUse" x1="63.2121" y1="202.3958" x2="363.0366" y2="202.3958">
		<stop  offset="5.208300e-04" style="stop-color:#181148"/>
		<stop  offset="0.7279" style="stop-color:#525AA8"/>
		<stop  offset="1" style="stop-color:#51C3C3"/>
	</linearGradient>
	<path class="st2" d="M67.3,151.6c-5.8,14.5-5.9,32,2.6,45.1c16.8,25.6,59.3,26,72.6,53.5c8.2,17.1,1.7,38.4,9.8,55.5
		c9.1,19.3,33.3,26.3,54.6,26.7c38.4,0.7,76.8-13.7,105.6-38.9c10.1-8.8,18-19.1,27-28.9c8.7-9.5,15-21,18.8-33.3
		c5.2-16.7,5.7-34.6,3-51.9c-4.5-28.3-18.3-54.7-39.5-74c-23.3-21.2-61.3-32.1-92.4-33c-9.3-0.3-18.6,0.6-27.7,1.9
		C150.9,81.5,88.1,99.1,67.3,151.6z"/>
	<g>
		<linearGradient id="SVGID_4_" gradientUnits="userSpaceOnUse" x1="133.147" y1="31.9424" x2="179.9481" y2="31.9424">
			<stop  offset="5.208300e-04" style="stop-color:#181148"/>
			<stop  offset="0.7279" style="stop-color:#525AA8"/>
			<stop  offset="1" style="stop-color:#51C3C3"/>
		</linearGradient>
		<circle class="st3" cx="156.5" cy="31.9" r="23.4"/>
		<linearGradient id="SVGID_5_" gradientUnits="userSpaceOnUse" x1="169.0279" y1="33.6322" x2="193.7283" y2="33.6322">
			<stop  offset="5.208300e-04" style="stop-color:#181148"/>
			<stop  offset="0.7279" style="stop-color:#525AA8"/>
			<stop  offset="1" style="stop-color:#51C3C3"/>
		</linearGradient>
		<path class="st4" d="M193.7,33.6c0,6.8-5.5,12.4-12.3,12.4c-6.8,0-12.4-5.5-12.4-12.4c0-6.8,5.5-12.4,12.4-12.4
			C188.2,21.3,193.7,26.8,193.7,33.6z"/>
	</g>
	<g>
		<linearGradient id="SVGID_6_" gradientUnits="userSpaceOnUse" x1="296.053" y1="345.205" x2="340.2492" y2="345.205">
			<stop  offset="5.208300e-04" style="stop-color:#181148"/>
			<stop  offset="0.7279" style="stop-color:#525AA8"/>
			<stop  offset="1" style="stop-color:#51C3C3"/>
		</linearGradient>
		<path class="st5" d="M340.2,345.2c0,12.2-9.9,22.1-22.1,22.1c-12.2,0-22.1-9.9-22.1-22.1c0-12.2,9.9-22.1,22.1-22.1
			C330.4,323.1,340.2,333,340.2,345.2z"/>
		<linearGradient id="SVGID_7_" gradientUnits="userSpaceOnUse" x1="329.9366" y1="346.801" x2="353.2625" y2="346.801">
			<stop  offset="5.208300e-04" style="stop-color:#181148"/>
			<stop  offset="0.7279" style="stop-color:#525AA8"/>
			<stop  offset="1" style="stop-color:#51C3C3"/>
		</linearGradient>
		<circle class="st6" cx="341.6" cy="346.8" r="11.7"/>
	</g>
</g>
<rect x="169" y="101.4" class="st7" width="174.6" height="202"/>
<text transform="matrix(1 0 0 1 169.029 280.0057)" class="st8 st9 st10">2</text>
</svg>
