<?xml version="1.0" encoding="utf-8"?>
<!-- Generator: Adobe Illustrator 24.1.1, SVG Export Plug-In . SVG Version: 6.00 Build 0)  -->
<svg version="1.1" id="Layer_1" xmlns="http://www.w3.org/2000/svg" xmlns:xlink="http://www.w3.org/1999/xlink" x="0px" y="0px"
	 viewBox="0 0 428.3 413.3" style="enable-background:new 0 0 428.3 413.3;" xml:space="preserve">
<style type="text/css">
	.st0{fill:url(#SVGID_1_);}
	.st1{fill:url(#SVGID_2_);}
	.st2{fill:url(#SVGID_3_);}
	.st3{fill:url(#SVGID_4_);}
	.st4{fill:url(#SVGID_5_);}
	.st5{fill:url(#SVGID_6_);}
	.st6{fill:url(#SVGID_7_);}
	.st7{fill:none;}
	.st8{fill:#FFFFFF;}
	.st9{font-family:'MongolianBaiti';}
	.st10{font-size:256.4727px;}
</style>
<g>
	<g>
		<linearGradient id="SVGID_1_" gradientUnits="userSpaceOnUse" x1="39.855" y1="215.8112" x2="397.3947" y2="215.8112">
			<stop  offset="0" style="stop-color:#FEC014"/>
			<stop  offset="1" style="stop-color:#F36E21"/>
		</linearGradient>
		<path class="st0" d="M218.6,394.6c-98.6,0-178.8-80.2-178.8-178.8C39.9,117.2,120.1,37,218.6,37s178.8,80.2,178.8,178.8
			C397.4,314.4,317.2,394.6,218.6,394.6z M218.6,45.3c-94,0-170.5,76.5-170.5,170.5s76.5,170.5,170.5,170.5s170.5-76.5,170.5-170.5
			S312.6,45.3,218.6,45.3z"/>
	</g>
	<linearGradient id="SVGID_2_" gradientUnits="userSpaceOnUse" x1="85.4287" y1="294.4267" x2="137.2982" y2="259.684">
		<stop  offset="0" style="stop-color:#FEC014"/>
		<stop  offset="1" style="stop-color:#F36E21"/>
	</linearGradient>
	<path class="st1" d="M93,237.5c0.8,10.8,0.4,21.8,2.7,32.4c1.3,6,3.4,12,7.5,16.6c4.8,5.5,11.7,8.7,18.7,10.7
		c11.3,3.3,23.1,4.3,34.5,7c11.4,2.7,22.9,7.5,30.3,16.7c0.6,0.8,1.3,1.6,2.2,2c1.9,0.7,3.8-0.9,5.1-2.5
		c10.1-12.8,8.6-31.7,1.2-46.3c-7.3-14.6-19.5-26-30.5-38c-6.4-6.9-12.5-14.2-19.9-20.1c-7.3-5.9-16.1-10.5-25.5-11.2
		c-4.7-0.3-9.9,0.2-13.6-2.8c-2.5-1.9-3.7-5-5.5-7.6c-1.8-2.5-5-4.7-7.9-3.6c-7.6,2.9-9,14.2-6.2,20.3C89.9,219.9,92.3,228,93,237.5
		z"/>
	<linearGradient id="SVGID_3_" gradientUnits="userSpaceOnUse" x1="68.2041" y1="211.9205" x2="366.9684" y2="211.9205">
		<stop  offset="0" style="stop-color:#FEC014"/>
		<stop  offset="1" style="stop-color:#F36E21"/>
	</linearGradient>
	<path class="st2" d="M72.3,161.3c-5.7,14.5-5.9,31.9,2.6,44.9c16.8,25.5,59.1,25.9,72.4,53.4c8.2,17,1.7,38.3,9.7,55.3
		c9.1,19.3,33.1,26.2,54.4,26.6c38.2,0.7,76.5-13.6,105.3-38.7c10.1-8.8,18-19.1,26.9-28.8c8.7-9.4,15-21,18.7-33.2
		c5.1-16.6,5.7-34.5,3-51.7c-4.4-28.2-18.3-54.5-39.4-73.8c-23.2-21.1-61.1-31.9-92.1-32.8c-9.2-0.3-18.5,0.6-27.6,1.9
		C155.6,91.5,93,109,72.3,161.3z"/>
	<g>
		<linearGradient id="SVGID_4_" gradientUnits="userSpaceOnUse" x1="137.8917" y1="42.0698" x2="184.5273" y2="42.0698">
			<stop  offset="0" style="stop-color:#FEC014"/>
			<stop  offset="1" style="stop-color:#F36E21"/>
		</linearGradient>
		<circle class="st3" cx="161.2" cy="42.1" r="23.3"/>
		<linearGradient id="SVGID_5_" gradientUnits="userSpaceOnUse" x1="173.6458" y1="43.7537" x2="198.2587" y2="43.7537">
			<stop  offset="0" style="stop-color:#FEC014"/>
			<stop  offset="1" style="stop-color:#F36E21"/>
		</linearGradient>
		<path class="st4" d="M198.3,43.8c0,6.8-5.5,12.3-12.3,12.3c-6.8,0-12.3-5.5-12.3-12.3c0-6.8,5.5-12.3,12.3-12.3
			C192.7,31.4,198.3,37,198.3,43.8z"/>
	</g>
	<g>
		<linearGradient id="SVGID_6_" gradientUnits="userSpaceOnUse" x1="300.2216" y1="354.2247" x2="344.2615" y2="354.2247">
			<stop  offset="0" style="stop-color:#FEC014"/>
			<stop  offset="1" style="stop-color:#F36E21"/>
		</linearGradient>
		<path class="st5" d="M344.3,354.2c0,12.2-9.9,22-22,22s-22-9.9-22-22c0-12.2,9.9-22,22-22S344.3,342.1,344.3,354.2z"/>
		<linearGradient id="SVGID_7_" gradientUnits="userSpaceOnUse" x1="333.9854" y1="355.815" x2="357.2289" y2="355.815">
			<stop  offset="0" style="stop-color:#FEC014"/>
			<stop  offset="1" style="stop-color:#F36E21"/>
		</linearGradient>
		<circle class="st6" cx="345.6" cy="355.8" r="11.6"/>
	</g>
</g>
<rect x="173.6" y="115.2" class="st7" width="173.9" height="201.3"/>
<text transform="matrix(1 0 0 1 173.6456 293.1399)" class="st8 st9 st10">3</text>
</svg>
